<svg width="64" height="20" viewBox="0 0 64 20" fill="none" xmlns="http://www.w3.org/2000/svg">
<path d="M0.517045 19V1.54545H7.40341C8.72159 1.54545 9.84659 1.78125 10.7784 2.25284C11.7159 2.71875 12.429 3.38068 12.9176 4.23864C13.4119 5.09091 13.6591 6.09375 13.6591 7.24716C13.6591 8.40625 13.4091 9.40341 12.9091 10.2386C12.4091 11.0682 11.6847 11.7045 10.7358 12.1477C9.79261 12.5909 8.65057 12.8125 7.30966 12.8125H2.69886V9.84659H6.71307C7.41761 9.84659 8.00284 9.75 8.46875 9.55682C8.93466 9.36364 9.28125 9.07386 9.50852 8.6875C9.74148 8.30114 9.85795 7.82102 9.85795 7.24716C9.85795 6.66761 9.74148 6.17898 9.50852 5.78125C9.28125 5.38352 8.93182 5.08239 8.46023 4.87784C7.99432 4.66761 7.40625 4.5625 6.69602 4.5625H4.20739V19H0.517045ZM9.94318 11.0568L14.2812 19H10.2074L5.96307 11.0568H9.94318ZM19.9318 19.2472C19.0966 19.2472 18.3523 19.1023 17.6989 18.8125C17.0455 18.517 16.5284 18.0824 16.1477 17.5085C15.7727 16.929 15.5852 16.2074 15.5852 15.3438C15.5852 14.6165 15.7188 14.0057 15.9858 13.5114C16.2528 13.017 16.6165 12.6193 17.0767 12.3182C17.5369 12.017 18.0597 11.7898 18.6449 11.6364C19.2358 11.483 19.8551 11.375 20.5028 11.3125C21.2642 11.233 21.8778 11.1591 22.3438 11.0909C22.8097 11.017 23.1477 10.9091 23.358 10.767C23.5682 10.625 23.6733 10.4148 23.6733 10.1364V10.0852C23.6733 9.54545 23.5028 9.12784 23.1619 8.83239C22.8267 8.53693 22.3494 8.3892 21.7301 8.3892C21.0767 8.3892 20.5568 8.53409 20.1705 8.82386C19.7841 9.10795 19.5284 9.46591 19.4034 9.89773L16.0455 9.625C16.2159 8.82955 16.5511 8.14205 17.0511 7.5625C17.5511 6.97727 18.196 6.52841 18.9858 6.21591C19.7813 5.89773 20.7017 5.73864 21.7472 5.73864C22.4744 5.73864 23.1705 5.82386 23.8352 5.99432C24.5057 6.16477 25.0994 6.42898 25.6165 6.78693C26.1392 7.14489 26.5511 7.60511 26.8523 8.16761C27.1534 8.72443 27.304 9.39205 27.304 10.1705V19H23.8608V17.1847H23.7585C23.5483 17.5938 23.267 17.9545 22.9148 18.267C22.5625 18.5739 22.1392 18.8153 21.6449 18.9915C21.1506 19.1619 20.5795 19.2472 19.9318 19.2472ZM20.9716 16.7415C21.5057 16.7415 21.9773 16.6364 22.3864 16.4261C22.7955 16.2102 23.1165 15.9205 23.3494 15.5568C23.5824 15.1932 23.6989 14.7812 23.6989 14.321V12.9318C23.5852 13.0057 23.429 13.0739 23.2301 13.1364C23.0369 13.1932 22.8182 13.2472 22.5739 13.2983C22.3295 13.3437 22.0852 13.3864 21.8409 13.4261C21.5966 13.4602 21.375 13.4915 21.1761 13.5199C20.75 13.5824 20.3778 13.6818 20.0597 13.8182C19.7415 13.9545 19.4943 14.1392 19.3182 14.3722C19.142 14.5994 19.054 14.8835 19.054 15.2244C19.054 15.7188 19.233 16.0966 19.5909 16.358C19.9545 16.6136 20.4148 16.7415 20.9716 16.7415ZM33.4105 15.233L33.419 10.8778H33.9474L38.1406 5.90909H42.3082L36.6747 12.4886H35.8139L33.4105 15.233ZM30.1207 19V1.54545H33.7514V19H30.1207ZM38.3026 19L34.4503 13.2983L36.8707 10.733L42.5554 19H38.3026ZM44.0895 19V5.90909H47.7202V19H44.0895ZM45.9134 4.22159C45.3736 4.22159 44.9105 4.04261 44.5241 3.68466C44.1435 3.32102 43.9531 2.88636 43.9531 2.38068C43.9531 1.88068 44.1435 1.4517 44.5241 1.09375C44.9105 0.730113 45.3736 0.548295 45.9134 0.548295C46.4531 0.548295 46.9134 0.730113 47.294 1.09375C47.6804 1.4517 47.8736 1.88068 47.8736 2.38068C47.8736 2.88636 47.6804 3.32102 47.294 3.68466C46.9134 4.04261 46.4531 4.22159 45.9134 4.22159ZM50.6967 19V1.54545H54.3274V8.10795H54.4382C54.5973 7.75568 54.8274 7.39773 55.1286 7.03409C55.4354 6.66477 55.8331 6.35795 56.3217 6.11364C56.8161 5.86364 57.4297 5.73864 58.1626 5.73864C59.1172 5.73864 59.9979 5.98864 60.8047 6.48864C61.6115 6.98295 62.2564 7.73011 62.7393 8.73011C63.2223 9.72443 63.4638 10.9716 63.4638 12.4716C63.4638 13.9318 63.228 15.1648 62.7564 16.1705C62.2905 17.1705 61.6541 17.929 60.8473 18.446C60.0462 18.9574 59.1484 19.2131 58.1541 19.2131C57.4496 19.2131 56.8501 19.0966 56.3558 18.8636C55.8672 18.6307 55.4666 18.3381 55.1541 17.9858C54.8416 17.6278 54.603 17.267 54.4382 16.9034H54.2763V19H50.6967ZM54.2507 12.4545C54.2507 13.233 54.3587 13.9119 54.5746 14.4915C54.7905 15.071 55.103 15.5227 55.5121 15.8466C55.9212 16.1648 56.4183 16.3239 57.0036 16.3239C57.5945 16.3239 58.0945 16.1619 58.5036 15.8381C58.9126 15.5085 59.2223 15.054 59.4325 14.4744C59.6484 13.8892 59.7564 13.2159 59.7564 12.4545C59.7564 11.6989 59.6513 11.0341 59.4411 10.4602C59.2308 9.88636 58.9212 9.4375 58.5121 9.11364C58.103 8.78977 57.6001 8.62784 57.0036 8.62784C56.4126 8.62784 55.9126 8.78409 55.5036 9.09659C55.1001 9.40909 54.7905 9.85227 54.5746 10.4261C54.3587 11 54.2507 11.6761 54.2507 12.4545Z" fill="white"/>
</svg>
